<svg xmlns="http://www.w3.org/2000/svg" viewBox="0 0 442.5 389.4"><path fill="#ff3735" d="m439.3 354.4-198-342.8a23.3 23.3 0 0 0-40.2 0L3 354.4c-9 15.6 2.3 35 20.2 35h395.9c17.9 0 29-19.4 20.1-35Zm-237-242.2h39V134a737.2 737.2 0 0 1-4 78.3 965.6 965.6 0 0 1-4.4 37.2h-22.2c-1.4-12.4-2.7-25.3-4-38.6a1091 1091 0 0 1-3.2-39.6 614 614 0 0 1-1.2-37.4v-21.8Zm35.3 207.7a21 21 0 0 1-16.4 6.8c-7.2 0-12.7-2.2-16.6-6.4s-5.9-10-5.9-17.7c0-7 2-12.7 6.2-17.2a21 21 0 0 1 16.3-6.8 22 22 0 0 1 16.7 6.2c3.9 4.1 5.8 10 5.8 17.8 0 7-2 12.8-6.1 17.3Z" opacity=".2"/></svg>